<?xml version="1.0" encoding="utf-8"?>
<!-- Generator: Adobe Illustrator 27.0.1, SVG Export Plug-In . SVG Version: 6.00 Build 0)  -->
<svg version="1.1" id="Layer_1" xmlns="http://www.w3.org/2000/svg" xmlns:xlink="http://www.w3.org/1999/xlink" x="0px" y="0px"
	 viewBox="0 0 200 200" style="enable-background:new 0 0 200 200;" xml:space="preserve">
<style type="text/css">
	.st0{fill:#7A9984;}
	.st1{fill:white;}
</style>
<g id="Layer_2_00000103974614995873987960000012827278305103072908_">
	<g>
		<path class="st0" d="M200,183c0,9.4-7.7,17-17,17H17c-9.4,0-17-7.6-17-17V17C0,7.6,7.6,0,17,0h166c9.3,0,17,7.6,17,17V183z"/>
	</g>
</g>
<g id="Spine_Logo">
	<g id="i">
		<path class="st1" d="M60.7,28.6c0.5,14.6,10.6,22.7,30.8,25.9c17.1,2.7,32.5,1.3,37.5-13.3c9.8-28.5-13.5-21.4-33.6-24.6
			C75.2,13.4,60,5.2,60.7,28.6z"/>
		<path class="st1" d="M66.8,88.6c1.9,10.9,12,17.1,27.6,16.7c15.5-0.4,27.1-6.5,28.8-18.3c3-21.8-14.2-13.4-29.7-12.9
			C77.8,74.6,63.1,67.2,66.8,88.6z"/>
		<path class="st1" d="M87,138.5c3.1,8.1,11.6,11.6,23,9.1c11.4-2.4,19.4-6.2,18.7-15.5c-1.2-17.2-12.5-11.8-23.9-9.3
			C93.4,125.2,81,122.5,87,138.5z"/>
		<path class="st1" d="M96.8,176.6c0.9,6.9,6.8,10.9,16.1,10.9c9.3-0.1,16.4-3.8,17.6-11.1c2.2-13.6-8.2-8.6-17.5-8.5
			C103.7,167.9,95.1,163.1,96.8,176.6z"/>
	</g>
</g>
</svg>
